<?xml version="1.0" encoding="UTF-8"?>
<svg version="1.1" xmlns="http://www.w3.org/2000/svg" width="267" height="80">
<path d="M0 0 C9.7365557 6.26364411 15.96583799 13.77533295 19.58203125 24.76953125 C21.88352087 37.05131233 20.02300514 47.94823493 13.42578125 58.5234375 C7.2422438 67.20056931 -1.62791165 72.66299782 -12 75 C-24.56396674 76.31827488 -34.7361503 73.96043445 -45.00390625 66.62109375 C-53.04562081 60.0901514 -58.13230424 50.84660472 -59.77734375 40.625 C-60.69162592 29.84609443 -58.35278087 20.07843955 -52.01953125 11.234375 C-39.33698326 -3.76021271 -17.89871832 -9.9437324 0 0 Z M-46 21 C-45.67 22.65 -45.34 24.3 -45 26 C-43.91203125 25.84015625 -42.8240625 25.6803125 -41.703125 25.515625 C-25.99018719 23.56705488 -10.29895814 23.85052093 4 31 C6.29887008 30.80469849 6.29887008 30.80469849 8 30 C8.33 28.68 8.66 27.36 9 26 C-4.26800001 16.38165043 -31.60336062 11.40224041 -46 21 Z M-44 34 C-43.67 35.32 -43.34 36.64 -43 38 C-41.27330078 37.76216797 -41.27330078 37.76216797 -39.51171875 37.51953125 C-26.83474389 35.95058492 -14.38406812 36.10108613 -2.78515625 42.15625 C-0.4887266 43.2416522 0.66048392 42.83554146 3 42 C2.84051901 40.07313962 2.84051901 40.07313962 2 38 C0.01584532 36.48745977 0.01584532 36.48745977 -2.5 35.375 C-3.3146875 34.97023437 -4.129375 34.56546875 -4.96875 34.1484375 C-12.08673054 31.45167683 -18.98979176 30.65679153 -26.5625 30.6875 C-27.36107422 30.67138672 -28.15964844 30.65527344 -28.98242188 30.63867188 C-34.63686491 30.63406353 -38.81291781 31.74810521 -44 34 Z M-41 45 C-41 46.32 -41 47.64 -41 49 C-40.33057373 48.97905273 -39.66114746 48.95810547 -38.97143555 48.93652344 C-35.87694919 48.85230522 -32.78270507 48.80100985 -29.6875 48.75 C-28.1087207 48.69972656 -28.1087207 48.69972656 -26.49804688 48.6484375 C-19.76007311 48.56550859 -14.55703139 49.47108161 -8.35083008 52.13378906 C-5.7920044 53.23049733 -5.7920044 53.23049733 -2 53 C-2.3555064 50.5372165 -2.55120779 49.34077026 -4.57421875 47.8046875 C-16.73258171 42.45590675 -28.23184318 42.67526556 -41 45 Z " fill="#FFFFFF" transform="translate(61,5)"/>
<path d="M0 0 C0.66 0.33 1.32 0.66 2 1 C2 3.31 2 5.62 2 8 C1.21625 7.938125 0.4325 7.87625 -0.375 7.8125 C-1.674375 7.9053125 -1.674375 7.9053125 -3 8 C-3.99 9.485 -3.99 9.485 -5 11 C-1.37 11 2.26 11 6 11 C6.33773437 11.83144531 6.67546875 12.66289063 7.0234375 13.51953125 C7.46945313 14.60621094 7.91546875 15.69289063 8.375 16.8125 C8.81585938 17.89144531 9.25671875 18.97039063 9.7109375 20.08203125 C10.9479119 23.10730112 10.9479119 23.10730112 13 26 C13.34933594 25.00097656 13.69867188 24.00195312 14.05859375 22.97265625 C14.51807919 21.66921795 14.97772279 20.3658354 15.4375 19.0625 C15.66759766 18.40314453 15.89769531 17.74378906 16.13476562 17.06445312 C17.88671875 12.11328125 17.88671875 12.11328125 19 11 C21.67058851 10.85884839 24.32432238 10.95752893 27 11 C24.71884405 18.01838075 22.2121615 24.9251495 19.5625 31.8125 C19.18029297 32.83537109 18.79808594 33.85824219 18.40429688 34.91210938 C18.02466797 35.89630859 17.64503906 36.88050781 17.25390625 37.89453125 C16.91689697 38.77987549 16.5798877 39.66521973 16.23266602 40.57739258 C14.84310188 43.3083581 13.32510615 45.0170964 11 47 C8.7109375 47.42578125 8.7109375 47.42578125 6.375 47.3125 C5.59898437 47.28800781 4.82296875 47.26351562 4.0234375 47.23828125 C2 47 2 47 0 46 C0.375 43.0625 0.375 43.0625 1 40 C3.46278801 38.768606 5.2795055 38.92840804 8 39 C6.26968215 33.45511781 4.27791433 28.18755129 1.76953125 22.9453125 C1 21 1 21 1 18 C-0.98 18 -2.96 18 -5 18 C-5 24.93 -5 31.86 -5 39 C-7.31 39 -9.62 39 -12 39 C-12 32.07 -12 25.14 -12 18 C-13.32 18 -14.64 18 -16 18 C-16 15.69 -16 13.38 -16 11 C-14.68 11 -13.36 11 -12 11 C-12.061875 10.0925 -12.12375 9.185 -12.1875 8.25 C-11.98118639 4.67389735 -11.49451413 3.49451413 -9 1 C-5.77390955 -0.07536348 -3.37822416 -0.14375422 0 0 Z " fill="#FFFFFF" transform="translate(229,20)"/>
<path d="M0 0 C3.99655365 1.43025949 6.45252422 3.24059811 8.9375 6.6875 C10.70406135 12.1950148 10.76912468 16.85454696 8.8125 22.3125 C6.69726273 25.4488863 5.33346021 27.15595818 2 29 C-2.04645862 29.45315231 -6.29278333 29.85360833 -10 28 C-10.33 30.97 -10.66 33.94 -11 37 C-13.64 37 -16.28 37 -19 37 C-19 25.12 -19 13.24 -19 1 C-15.66666667 1 -12.33333333 1 -9 1 C-5.88111322 -0.55944339 -3.4545855 -0.28316275 0 0 Z M-11 11 C-11.63857688 14.52636345 -11.65841319 17.76063399 -9.9375 21 C-6.83132725 22.60318593 -4.42009021 22.42751128 -1 22 C1.60055327 19.8188908 1.93947563 18.4063779 2.4375 15.0625 C1.8891602 11.22412143 0.84380195 9.61322341 -2 7 C-6.38391294 6.01361959 -8.5371842 7.351384 -11 11 Z " fill="#FFFFFF" transform="translate(142,30)"/>
<path d="M0 0 C0.54914063 0.46792969 1.09828125 0.93585937 1.6640625 1.41796875 C0.9140625 3.85546875 0.9140625 3.85546875 -0.3359375 6.41796875 C-2.2734375 7.35546875 -2.2734375 7.35546875 -4.3359375 7.41796875 C-5.3259375 6.75796875 -6.3159375 6.09796875 -7.3359375 5.41796875 C-9.39303346 5.17741407 -9.39303346 5.17741407 -11.5234375 5.29296875 C-12.7815625 5.33421875 -14.0396875 5.37546875 -15.3359375 5.41796875 C-15.3359375 6.73796875 -15.3359375 8.05796875 -15.3359375 9.41796875 C-14.37171875 9.7325 -13.4075 10.04703125 -12.4140625 10.37109375 C-11.13781146 10.8027669 -9.86178121 11.2350932 -8.5859375 11.66796875 C-7.95171875 11.87292969 -7.3175 12.07789063 -6.6640625 12.2890625 C-2.66718167 13.66299029 0.12653293 14.99073745 2.6640625 18.41796875 C3.4665479 21.82161372 3.32394203 24.99103137 2.6640625 28.41796875 C0.47383332 31.24221163 -1.16610957 32.83305478 -4.3359375 34.41796875 C-12.43824208 35.11802623 -18.40042984 34.76965983 -25.3359375 30.41796875 C-25.3359375 26.41796875 -25.3359375 26.41796875 -23.8359375 24.66796875 C-23.3409375 24.25546875 -22.8459375 23.84296875 -22.3359375 23.41796875 C-17.5859375 25.29296875 -17.5859375 25.29296875 -15.3359375 26.41796875 C-13.79569754 26.48747416 -12.25258762 26.50249232 -10.7109375 26.48046875 C-9.89367187 26.47144531 -9.07640625 26.46242188 -8.234375 26.453125 C-7.60789062 26.44152344 -6.98140625 26.42992188 -6.3359375 26.41796875 C-6.0059375 24.76796875 -5.6759375 23.11796875 -5.3359375 21.41796875 C-6.13257812 21.2478125 -6.92921875 21.07765625 -7.75 20.90234375 C-13.72580409 19.53561483 -18.59672954 18.3886565 -23.3359375 14.41796875 C-25.07737787 10.93508802 -24.91448956 7.2180039 -24.3359375 3.41796875 C-18.51228111 -4.63237979 -8.11831415 -5.49818935 0 0 Z " fill="#FFFFFF" transform="translate(118.3359375,24.58203125)"/>
<path d="M0 0 C3.62011046 2.33296007 5.89022378 4.96794755 7.8125 8.8125 C8.62139711 15.32345871 7.71319977 19.5412841 3.8125 24.8125 C-1.56566218 28.75833377 -6.74788656 28.58909295 -13.1875 27.8125 C-17.10021318 26.02775364 -18.66164901 24.58374813 -21.0625 21.0625 C-22.91399749 15.71372947 -23.14362868 11.16033153 -20.6875 6.0625 C-16.06243822 -1.07937985 -7.72097537 -2.8764418 0 0 Z M-11.9375 7.9375 C-14.39741668 10.62272879 -14.39741668 10.62272879 -14.75 13.875 C-14.37236055 16.86142256 -14.37236055 16.86142256 -12.625 19.1875 C-9.2880787 21.4121142 -7.11844707 21.31280235 -3.1875 20.8125 C-1.08507556 19.96030077 -1.08507556 19.96030077 -0.1875 17.8125 C0.32957532 13.74231337 0.32957532 13.74231337 -0.1875 9.8125 C-2.29463446 7.19286865 -2.29463446 7.19286865 -5.1875 5.8125 C-9.23920328 5.40486833 -9.23920328 5.40486833 -11.9375 7.9375 Z " fill="#FFFFFF" transform="translate(175.1875,31.1875)"/>
<path d="M0 0 C2.64 0 5.28 0 8 0 C8 2.64 8 5.28 8 8 C10.31 8 12.62 8 15 8 C15 10.31 15 12.62 15 15 C12.69 15 10.38 15 8 15 C8 19.62 8 24.24 8 29 C11.465 28.505 11.465 28.505 15 28 C15.04241723 30.33294775 15.04092937 32.66702567 15 35 C13.34346314 36.65653686 11.39349204 36.17106165 9.125 36.1875 C8.24070313 36.20167969 7.35640625 36.21585938 6.4453125 36.23046875 C4 36 4 36 1 34 C-0.25433458 30.23699626 -0.10695422 26.72789091 -0.0625 22.8125 C-0.05798828 22.06291016 -0.05347656 21.31332031 -0.04882812 20.54101562 C-0.03706354 18.69397617 -0.01912865 16.84697787 0 15 C-0.99 15 -1.98 15 -3 15 C-3 12.69 -3 10.38 -3 8 C-2.01 8 -1.02 8 0 8 C0 5.36 0 2.72 0 0 Z " fill="#FFFFFF" transform="translate(186,23)"/>
<path d="M0 0 C2.64 0 5.28 0 8 0 C8 9.24 8 18.48 8 28 C5.36 28 2.72 28 0 28 C0 18.76 0 9.52 0 0 Z " fill="#FFFFFF" transform="translate(203,31)"/>
<path d="M0 0 C3.0625 0.1875 3.0625 0.1875 5.0625 2.1875 C4.49431818 7.75568182 4.49431818 7.75568182 3.0625 9.1875 C0.22890458 9.4857732 -1.37535378 9.54352594 -3.8125 8 C-4.9375 6.1875 -4.9375 6.1875 -4.6875 3.5625 C-3.63578571 0.23207143 -3.63578571 0.23207143 0 0 Z " fill="#FFFFFF" transform="translate(206.9375,18.8125)"/>
<path d="M0 0 C3.625 0.375 3.625 0.375 7 1 C7.125 3.875 7.125 3.875 7 7 C5 9 5 9 2.5 9.25 C0 9 0 9 -2 7 C-2.25 4.5 -2.25 4.5 -2 2 C-1.34 1.34 -0.68 0.68 0 0 Z M-1 3 C0 6 0 6 0 6 Z M5 3 C6 6 6 6 6 6 Z M2 6 C3 8 3 8 3 8 Z " fill="#FFFFFF" transform="translate(258,31)"/>
</svg>
